# xmcd
# 
# Track frame offsets:
#     150
#     19856
#     33508
#     70740
# 
# Disc length: 1015
# 
# Revision: 0
# Processed by: cddbd v1.5.2PL0 Copyright (c) Steve Scherf et al.
# Submitted via: BonkEnc v1.0rc2
# 
DISCID=2c03f504
DTITLE=zun - 東方求聞史記
DYEAR=0
DGENRE=game music
TTITLE0=ジャパニーズサーガ
TTITLE1=阿礼の子供
TTITLE2=夜の鳩山を飛ぶ - Power MIX
TTITLE3=Data track
EXTD=
EXTT0=
EXTT1=
EXTT2=
EXTT3=
PLAYORDER=
